<svg width="189" height="70" viewBox="0 0 189 70" fill="none" xmlns="http://www.w3.org/2000/svg">
<path d="M9.42307 23.7245V32.1455H20.0491V36.4925H9.42307V45.0815H22.9051V49.5965H3.75307V19.2305H22.9051V23.7245H9.42307Z" fill="white"/>
<path d="M42.3593 32.2505C42.2333 32.4045 42.1073 32.5305 41.9813 32.6285C41.8693 32.7125 41.7013 32.7545 41.4773 32.7545C41.2533 32.7545 41.0153 32.6705 40.7633 32.5025C40.5253 32.3205 40.2173 32.1315 39.8393 31.9355C39.4753 31.7255 39.0273 31.5365 38.4953 31.3685C37.9773 31.1865 37.3333 31.0955 36.5633 31.0955C35.5553 31.0955 34.6663 31.2775 33.8963 31.6415C33.1263 32.0055 32.4823 32.5235 31.9643 33.1955C31.4603 33.8675 31.0753 34.6865 30.8093 35.6525C30.5433 36.6185 30.4103 37.7035 30.4103 38.9075C30.4103 40.1535 30.5503 41.2665 30.8303 42.2465C31.1103 43.2125 31.5093 44.0315 32.0273 44.7035C32.5453 45.3615 33.1753 45.8655 33.9173 46.2155C34.6593 46.5515 35.4853 46.7195 36.3953 46.7195C37.2773 46.7195 38.0053 46.6145 38.5793 46.4045C39.1533 46.1805 39.6293 45.9425 40.0073 45.6905C40.3853 45.4385 40.7003 45.2075 40.9523 44.9975C41.2043 44.7735 41.4633 44.6615 41.7293 44.6615C42.0653 44.6615 42.3243 44.7875 42.5063 45.0395L43.6823 46.5515C43.1923 47.1535 42.6393 47.6645 42.0233 48.0845C41.4213 48.5045 40.7773 48.8475 40.0913 49.1135C39.4053 49.3795 38.6843 49.5755 37.9283 49.7015C37.1863 49.8275 36.4303 49.8905 35.6603 49.8905C34.3303 49.8905 33.0843 49.6455 31.9223 49.1555C30.7743 48.6655 29.7733 47.9515 28.9193 47.0135C28.0793 46.0755 27.4143 44.9275 26.9243 43.5695C26.4343 42.1975 26.1893 40.6435 26.1893 38.9075C26.1893 37.3255 26.4063 35.8625 26.8403 34.5185C27.2883 33.1745 27.9393 32.0195 28.7933 31.0535C29.6613 30.0735 30.7253 29.3105 31.9853 28.7645C33.2453 28.2045 34.6873 27.9245 36.3113 27.9245C37.8373 27.9245 39.1813 28.1695 40.3433 28.6595C41.5053 29.1495 42.5413 29.8425 43.4513 30.7385L42.3593 32.2505Z" fill="#23AE4A"/>
<path d="M112.277 44.9345V49.5965H94.4904V19.2305H100.139V44.9345H112.277ZM123.918 27.7145C125.514 27.7145 126.963 27.9735 128.265 28.4915C129.581 29.0095 130.701 29.7445 131.625 30.6965C132.563 31.6485 133.284 32.8105 133.788 34.1825C134.292 35.5545 134.544 37.0875 134.544 38.7815C134.544 40.4895 134.292 42.0295 133.788 43.4015C133.284 44.7735 132.563 45.9425 131.625 46.9085C130.701 47.8745 129.581 48.6165 128.265 49.1345C126.963 49.6525 125.514 49.9115 123.918 49.9115C122.308 49.9115 120.845 49.6525 119.529 49.1345C118.213 48.6165 117.086 47.8745 116.148 46.9085C115.224 45.9425 114.503 44.7735 113.985 43.4015C113.481 42.0295 113.229 40.4895 113.229 38.7815C113.229 37.0875 113.481 35.5545 113.985 34.1825C114.503 32.8105 115.224 31.6485 116.148 30.6965C117.086 29.7445 118.213 29.0095 119.529 28.4915C120.845 27.9735 122.308 27.7145 123.918 27.7145ZM123.918 45.9215C125.71 45.9215 127.033 45.3195 127.887 44.1155C128.755 42.9115 129.189 41.1475 129.189 38.8235C129.189 36.4995 128.755 34.7285 127.887 33.5105C127.033 32.2925 125.71 31.6835 123.918 31.6835C122.098 31.6835 120.747 32.2995 119.865 33.5315C118.997 34.7495 118.563 36.5135 118.563 38.8235C118.563 41.1335 118.997 42.8975 119.865 44.1155C120.747 45.3195 122.098 45.9215 123.918 45.9215ZM146.212 38.2985C146.856 38.2985 147.416 38.2145 147.892 38.0465C148.368 37.8645 148.76 37.6195 149.068 37.3115C149.39 37.0035 149.628 36.6325 149.782 36.1985C149.95 35.7645 150.034 35.2885 150.034 34.7705C150.034 33.7065 149.712 32.8665 149.068 32.2505C148.438 31.6205 147.486 31.3055 146.212 31.3055C144.938 31.3055 143.979 31.6205 143.335 32.2505C142.705 32.8665 142.39 33.7065 142.39 34.7705C142.39 35.2745 142.467 35.7435 142.621 36.1775C142.789 36.6115 143.027 36.9895 143.335 37.3115C143.657 37.6195 144.056 37.8645 144.532 38.0465C145.022 38.2145 145.582 38.2985 146.212 38.2985ZM152.071 50.5625C152.071 50.1425 151.945 49.7995 151.693 49.5335C151.441 49.2675 151.098 49.0645 150.664 48.9245C150.23 48.7705 149.719 48.6585 149.131 48.5885C148.557 48.5185 147.941 48.4695 147.283 48.4415C146.639 48.3995 145.967 48.3645 145.267 48.3365C144.581 48.3085 143.909 48.2525 143.251 48.1685C142.677 48.4905 142.208 48.8685 141.844 49.3025C141.494 49.7365 141.319 50.2405 141.319 50.8145C141.319 51.1925 141.41 51.5425 141.592 51.8645C141.788 52.2005 142.089 52.4875 142.495 52.7255C142.915 52.9635 143.454 53.1455 144.112 53.2715C144.77 53.4115 145.575 53.4815 146.527 53.4815C147.493 53.4815 148.326 53.4045 149.026 53.2505C149.726 53.1105 150.3 52.9075 150.748 52.6415C151.21 52.3895 151.546 52.0815 151.756 51.7175C151.966 51.3675 152.071 50.9825 152.071 50.5625ZM157.237 28.7855V30.7175C157.237 31.3335 156.866 31.7115 156.124 31.8515L154.192 32.2085C154.486 32.9505 154.633 33.7625 154.633 34.6445C154.633 35.7085 154.416 36.6745 153.982 37.5425C153.562 38.3965 152.974 39.1245 152.218 39.7265C151.462 40.3285 150.566 40.7975 149.53 41.1335C148.508 41.4555 147.402 41.6165 146.212 41.6165C145.792 41.6165 145.386 41.5955 144.994 41.5535C144.602 41.5115 144.217 41.4555 143.839 41.3855C143.167 41.7915 142.831 42.2465 142.831 42.7505C142.831 43.1845 143.027 43.5065 143.419 43.7165C143.825 43.9125 144.357 44.0525 145.015 44.1365C145.673 44.2205 146.422 44.2765 147.262 44.3045C148.102 44.3185 148.963 44.3605 149.845 44.4305C150.727 44.5005 151.588 44.6265 152.428 44.8085C153.268 44.9765 154.017 45.2495 154.675 45.6275C155.333 46.0055 155.858 46.5235 156.25 47.1815C156.656 47.8255 156.859 48.6585 156.859 49.6805C156.859 50.6325 156.621 51.5565 156.145 52.4525C155.683 53.3485 155.004 54.1465 154.108 54.8465C153.226 55.5465 152.134 56.1065 150.832 56.5265C149.544 56.9605 148.074 57.1775 146.422 57.1775C144.798 57.1775 143.384 57.0165 142.18 56.6945C140.976 56.3865 139.975 55.9665 139.177 55.4345C138.379 54.9165 137.784 54.3145 137.392 53.6285C137 52.9425 136.804 52.2285 136.804 51.4865C136.804 50.4785 137.105 49.6385 137.707 48.9665C138.323 48.2805 139.163 47.7345 140.227 47.3285C139.653 47.0345 139.198 46.6425 138.862 46.1525C138.526 45.6625 138.358 45.0185 138.358 44.2205C138.358 43.8985 138.414 43.5695 138.526 43.2335C138.652 42.8835 138.827 42.5405 139.051 42.2045C139.289 41.8685 139.583 41.5535 139.933 41.2595C140.283 40.9515 140.696 40.6785 141.172 40.4405C140.08 39.8525 139.219 39.0685 138.589 38.0885C137.973 37.1085 137.665 35.9605 137.665 34.6445C137.665 33.5805 137.875 32.6215 138.295 31.7675C138.729 30.8995 139.324 30.1645 140.08 29.5625C140.85 28.9465 141.753 28.4775 142.789 28.1555C143.839 27.8335 144.98 27.6725 146.212 27.6725C147.136 27.6725 148.004 27.7705 148.816 27.9665C149.628 28.1485 150.37 28.4215 151.042 28.7855H157.237ZM165.903 28.0505V49.5965H160.695V28.0505H165.903ZM166.617 21.7715C166.617 22.2195 166.526 22.6395 166.344 23.0315C166.162 23.4235 165.917 23.7665 165.609 24.0605C165.315 24.3545 164.965 24.5925 164.559 24.7745C164.153 24.9425 163.719 25.0265 163.257 25.0265C162.809 25.0265 162.382 24.9425 161.976 24.7745C161.584 24.5925 161.241 24.3545 160.947 24.0605C160.653 23.7665 160.415 23.4235 160.233 23.0315C160.065 22.6395 159.981 22.2195 159.981 21.7715C159.981 21.3095 160.065 20.8755 160.233 20.4695C160.415 20.0635 160.653 19.7135 160.947 19.4195C161.241 19.1255 161.584 18.8945 161.976 18.7265C162.382 18.5445 162.809 18.4535 163.257 18.4535C163.719 18.4535 164.153 18.5445 164.559 18.7265C164.965 18.8945 165.315 19.1255 165.609 19.4195C165.917 19.7135 166.162 20.0635 166.344 20.4695C166.526 20.8755 166.617 21.3095 166.617 21.7715ZM186.626 32.6075C186.472 32.8035 186.318 32.9575 186.164 33.0695C186.024 33.1815 185.814 33.2375 185.534 33.2375C185.268 33.2375 185.009 33.1605 184.757 33.0065C184.505 32.8385 184.204 32.6565 183.854 32.4605C183.504 32.2505 183.084 32.0685 182.594 31.9145C182.118 31.7465 181.523 31.6625 180.809 31.6625C179.899 31.6625 179.101 31.8305 178.415 32.1665C177.729 32.4885 177.155 32.9575 176.693 33.5735C176.245 34.1895 175.909 34.9385 175.685 35.8205C175.461 36.6885 175.349 37.6755 175.349 38.7815C175.349 39.9295 175.468 40.9515 175.706 41.8475C175.958 42.7435 176.315 43.4995 176.777 44.1155C177.239 44.7175 177.799 45.1795 178.457 45.5015C179.115 45.8095 179.857 45.9635 180.683 45.9635C181.509 45.9635 182.174 45.8655 182.678 45.6695C183.196 45.4595 183.63 45.2355 183.98 44.9975C184.33 44.7455 184.631 44.5215 184.883 44.3255C185.149 44.1155 185.443 44.0105 185.765 44.0105C186.185 44.0105 186.5 44.1715 186.71 44.4935L188.201 46.3835C187.627 47.0555 187.004 47.6225 186.332 48.0845C185.66 48.5325 184.96 48.8965 184.232 49.1765C183.518 49.4425 182.776 49.6315 182.006 49.7435C181.25 49.8555 180.494 49.9115 179.738 49.9115C178.408 49.9115 177.155 49.6665 175.979 49.1765C174.803 48.6725 173.774 47.9445 172.892 46.9925C172.01 46.0405 171.31 44.8785 170.792 43.5065C170.288 42.1205 170.036 40.5455 170.036 38.7815C170.036 37.1995 170.26 35.7365 170.708 34.3925C171.17 33.0345 171.842 31.8655 172.724 30.8855C173.606 29.8915 174.698 29.1145 176 28.5545C177.302 27.9945 178.8 27.7145 180.494 27.7145C182.104 27.7145 183.511 27.9735 184.715 28.4915C185.933 29.0095 187.025 29.7515 187.991 30.7175L186.626 32.6075Z" fill="white"/>
<path d="M51.1444 30.6997C50.9724 30.088 50.9724 29.444 51.1443 28.8324C51.3163 28.2207 51.6541 27.663 52.1238 27.2152L61.9125 17.8844C62.3822 17.4366 62.9673 17.1146 63.609 16.9507C64.2507 16.7868 64.9263 16.7868 65.568 16.9508L74.7277 19.2903C74.823 18.0942 75.2599 16.9457 75.991 15.9692L64.9588 13.1517C64.1669 12.9494 63.3332 12.9494 62.5413 13.1517C61.7495 13.3539 61.0274 13.7513 60.4477 14.3038L48.3678 25.8187C47.7881 26.3713 47.3713 27.0596 47.1591 27.8144C46.947 28.5692 46.947 29.364 47.1591 30.1188L50.2286 41.0384C51.232 40.3079 52.4267 39.8543 53.6821 39.727L51.1444 30.6997Z" fill="#23AE4A"/>
<path d="M82.5767 26.0062L85.1992 35.3353C85.3712 35.9471 85.371 36.591 85.1992 37.2026C85.0271 37.8143 84.6892 38.372 84.2195 38.8198L74.4309 48.1508C73.9611 48.5986 73.3761 48.9204 72.7343 49.0844C72.0927 49.2482 71.417 49.2482 70.7754 49.0844L61.3051 46.6654C61.1717 47.8622 60.6958 49.001 59.9294 49.9574L71.3848 52.8833C72.1766 53.0856 73.0104 53.0856 73.8022 52.8833C74.5942 52.681 75.3161 52.2838 75.8959 51.7312L87.9758 40.2163C88.5556 39.6636 88.9722 38.9754 89.1845 38.2205C89.3967 37.4657 89.3967 36.6709 89.1845 35.9162L85.9992 24.5878C85.017 25.352 83.8327 25.8428 82.5767 26.0062Z" fill="#23AE4A"/>
<path d="M50.5039 42.2167C49.7281 42.9561 49.1998 43.8985 48.9857 44.9241C48.7717 45.9499 48.8816 47.0131 49.3014 47.9794C49.7213 48.9454 50.4323 49.7713 51.3445 50.3524C52.2568 50.9333 53.3292 51.2436 54.4264 51.2436C55.5235 51.2436 56.5961 50.9333 57.5083 50.3524C58.4205 49.7713 59.1316 48.9454 59.5514 47.9794C59.9713 47.0131 60.0811 45.9499 59.8671 44.9241C59.653 43.8985 59.1247 42.9561 58.3489 42.2167C57.3078 41.2266 55.8971 40.6704 54.4264 40.6704C52.9557 40.6704 51.5451 41.2266 50.5039 42.2167Z" fill="#23AE4A"/>
<path d="M71.4278 46.8704C71.2049 46.8704 70.9833 46.8426 70.7681 46.7876L62.0992 44.5733C61.8101 43.1019 61.0613 41.7481 59.9508 40.6897C58.8404 39.6313 57.4202 38.9173 55.8766 38.6418L53.5539 30.3791C53.4387 29.9669 53.4391 29.5332 53.5549 29.1212C53.6707 28.7092 53.8979 28.3335 54.2138 28.0314L63.1115 19.5497C63.428 19.248 63.8222 19.031 64.2546 18.9206C64.687 18.8101 65.1422 18.8102 65.5745 18.9206L74.0004 21.0728C74.3346 22.535 75.1243 23.867 76.2662 24.8942C77.408 25.9213 78.8487 26.5959 80.3994 26.8293L82.7882 35.3297C82.9033 35.7419 82.9031 36.1757 82.7871 36.5876C82.6713 36.9996 82.4442 37.3754 82.1281 37.6775L73.2304 46.159C72.9943 46.3852 72.7132 46.5647 72.4037 46.6867C72.0943 46.8089 71.7627 46.8713 71.4278 46.8704Z" fill="#0D5801"/>
<path d="M86.8683 19.37C87.1903 19.37 87.4353 19.461 87.6033 19.643C87.7713 19.811 87.8553 20.042 87.8553 20.336V22.1H76.9563V21.113C76.9563 20.917 76.9913 20.714 77.0613 20.504C77.1453 20.294 77.2783 20.091 77.4603 19.895L82.0383 15.38C82.7383 14.708 83.3193 14.001 83.7813 13.259C84.2573 12.517 84.4953 11.789 84.4953 11.075C84.4953 10.403 84.2993 9.885 83.9073 9.521C83.5293 9.157 83.0463 8.975 82.4583 8.975C81.8563 8.975 81.3663 9.136 80.9883 9.458C80.6243 9.766 80.3513 10.193 80.1693 10.739C80.0153 11.005 79.8403 11.194 79.6443 11.306C79.4623 11.404 79.1683 11.418 78.7623 11.348L77.1243 11.075C77.2223 10.319 77.4253 9.661 77.7333 9.101C78.0553 8.527 78.4543 8.058 78.9303 7.694C79.4063 7.316 79.9523 7.036 80.5683 6.854C81.1983 6.658 81.8773 6.56 82.6053 6.56C83.3613 6.56 84.0403 6.672 84.6423 6.896C85.2443 7.106 85.7553 7.407 86.1753 7.799C86.5953 8.177 86.9173 8.639 87.1413 9.185C87.3793 9.731 87.4983 10.326 87.4983 10.97C87.4983 11.53 87.4073 12.055 87.2253 12.545C87.0573 13.021 86.8263 13.476 86.5323 13.91C86.2383 14.344 85.9023 14.771 85.5243 15.191C85.1463 15.597 84.7543 16.01 84.3483 16.43L81.1563 19.685C81.4923 19.587 81.8283 19.51 82.1643 19.454C82.5003 19.398 82.8153 19.37 83.1093 19.37H86.8683Z" fill="#23AE4A"/>
</svg>
