<svg width="88" height="114" viewBox="0 0 88 114" fill="none" xmlns="http://www.w3.org/2000/svg">
<path d="M8.57796 65.3388C8.22201 64.0107 8.22196 62.6123 8.57782 61.2842C8.93368 59.9561 9.63288 58.7451 10.6052 57.7729L30.8654 37.5126C31.8376 36.5403 33.0487 35.8411 34.3768 35.4853C35.7049 35.1294 37.1032 35.1294 38.4313 35.4854L57.3899 40.5653C57.5872 37.9681 58.4914 35.4743 60.0047 33.3541L37.1705 27.2363C35.5315 26.7972 33.8059 26.7972 32.1669 27.2363C30.528 27.6755 29.0335 28.5383 27.8336 29.738L2.83101 54.7406C1.63128 55.9405 0.768491 57.4349 0.329358 59.0739C-0.109776 60.7128 -0.109786 62.4385 0.329329 64.0775L6.68244 87.7874C8.75929 86.2014 11.2319 85.2163 13.8305 84.9401L8.57796 65.3388Z" fill="#23AE4A"/>
<path d="M73.6356 55.1478L79.0635 75.4042C79.4196 76.7326 79.4191 78.1308 79.0635 79.4587C78.7074 80.787 78.0081 81.9979 77.0358 82.9702L56.7756 103.231C55.8033 104.203 54.5924 104.902 53.2641 105.258C51.9362 105.614 50.5375 105.614 49.2097 105.258L29.6084 100.006C29.3322 102.604 28.3473 105.077 26.761 107.154L50.471 113.507C52.1098 113.946 53.8356 113.946 55.4744 113.507C57.1136 113.067 58.6079 112.205 59.8079 111.005L84.8105 86.0024C86.0104 84.8024 86.8729 83.3082 87.3121 81.6689C87.7514 80.0301 87.7514 78.3043 87.3121 76.6655L80.7194 52.068C78.6865 53.7273 76.2352 54.793 73.6356 55.1478Z" fill="#23AE4A"/>
<path d="M7.25246 90.3459C5.64671 91.9514 4.55318 93.9976 4.11015 96.2245C3.66712 98.4519 3.8945 100.761 4.76352 102.859C5.6325 104.956 7.10413 106.749 8.99223 108.011C10.8804 109.273 13.1002 109.946 15.3711 109.946C17.6419 109.946 19.8617 109.273 21.7498 108.011C23.638 106.749 25.1096 104.956 25.9786 102.859C26.8476 100.761 27.075 98.4519 26.6319 96.2245C26.1889 93.9976 25.0954 91.9514 23.4897 90.3459C21.3348 88.196 18.4151 86.9884 15.3711 86.9884C12.3271 86.9884 9.40733 88.196 7.25246 90.3459Z" fill="#23AE4A"/>
<path d="M50.5599 100.451C50.0987 100.451 49.6399 100.39 49.1945 100.271L31.2519 95.4629C30.6536 92.268 29.1037 89.3285 26.8053 87.0303C24.5069 84.7321 21.5675 83.1817 18.3726 82.5836L13.5651 64.6425C13.3268 63.7476 13.3275 62.8058 13.5672 61.9113C13.8069 61.0168 14.2772 60.2008 14.931 59.545L33.3471 41.1284C34.0022 40.4733 34.8182 40.0022 35.7131 39.7624C36.608 39.5227 37.5503 39.5227 38.4451 39.7626L55.8846 44.4355C56.5764 47.6106 58.2109 50.5027 60.5742 52.7331C62.9376 54.9634 65.9194 56.428 69.129 56.9349L74.0735 75.3919C74.3117 76.2871 74.3112 77.2289 74.0711 78.1232C73.8315 79.0179 73.3613 79.8338 72.7071 80.4899L54.291 98.9059C53.8023 99.397 53.2204 99.7869 52.58 100.052C51.9396 100.317 51.2531 100.452 50.5599 100.451Z" fill="#0D5801"/>
<path d="M81.9949 41.2309C82.6614 41.2309 83.1685 41.4193 83.5162 41.796C83.8639 42.1437 84.0378 42.6218 84.0378 43.2303V46.8814H61.4794V44.8385C61.4794 44.4328 61.5518 44.0127 61.6967 43.578C61.8706 43.1434 62.1458 42.7232 62.5225 42.3175L71.9979 32.9725C73.4468 31.5817 74.6493 30.1183 75.6055 28.5826C76.5908 27.0468 77.0834 25.54 77.0834 24.0622C77.0834 22.6713 76.6777 21.5992 75.8663 20.8458C75.084 20.0924 74.0843 19.7157 72.8672 19.7157C71.6212 19.7157 70.6071 20.0489 69.8247 20.7154C69.0713 21.3529 68.5062 22.2367 68.1295 23.3667C67.8108 23.9173 67.4486 24.3085 67.0429 24.5403C66.6662 24.7431 66.0577 24.7721 65.2174 24.6272L61.8271 24.0622C62.0299 22.4974 62.4501 21.1355 63.0876 19.9765C63.7541 18.7884 64.5799 17.8177 65.5651 17.0643C66.5503 16.2819 67.6804 15.7024 68.9554 15.3257C70.2593 14.92 71.6647 14.7172 73.1715 14.7172C74.7362 14.7172 76.1416 14.949 77.3876 15.4126C78.6336 15.8473 79.6913 16.4703 80.5606 17.2816C81.4299 18.064 82.0963 19.0202 82.56 20.1503C83.0526 21.2804 83.2989 22.5119 83.2989 23.8449C83.2989 25.0039 83.1105 26.0906 82.7338 27.1047C82.3861 28.09 81.908 29.0317 81.2995 29.93C80.691 30.8283 79.9955 31.712 79.2131 32.5814C78.4308 33.4217 77.6194 34.2765 76.7791 35.1458L70.1724 41.8829C70.8678 41.68 71.5633 41.5207 72.2587 41.4048C72.9542 41.2889 73.6061 41.2309 74.2147 41.2309H81.9949Z" fill="#23AE4A"/>
</svg>
