<svg width="450" height="450" viewBox="0 0 450 450" fill="none" xmlns="http://www.w3.org/2000/svg">
<path d="M44.0439 198.947C42.2163 192.072 42.216 184.833 44.0432 177.958C45.8704 171.083 49.4605 164.814 54.4528 159.781L158.48 54.9014C163.472 49.8683 169.69 46.2487 176.509 44.4066C183.328 42.5644 190.508 42.5647 197.327 44.4073L294.671 70.7042C295.684 57.2592 300.327 44.3497 308.097 33.3742L190.854 1.70481C182.438 -0.568319 173.578 -0.568273 165.163 1.70496C156.747 3.97821 149.074 8.44456 142.913 14.6551L14.536 144.084C8.37587 150.296 3.94585 158.032 1.6911 166.516C-0.563652 175 -0.563701 183.934 1.69096 192.418L34.3113 315.155C44.975 306.945 57.6708 301.846 71.0131 300.416L44.0439 198.947Z" fill="#23AE4A"/>
<path d="M378.085 146.192L405.955 251.052C407.784 257.929 407.781 265.167 405.955 272.04C404.127 278.917 400.536 285.185 395.544 290.218L291.517 395.1C286.525 400.133 280.307 403.751 273.487 405.594C266.669 407.435 259.487 407.435 252.669 405.594L152.026 378.404C150.607 391.857 145.55 404.657 137.406 415.407L259.146 448.294C267.56 450.569 276.421 450.569 284.836 448.294C293.252 446.02 300.925 441.556 307.086 435.344L435.463 305.915C441.625 299.703 446.053 291.968 448.308 283.482C450.564 274.999 450.564 266.065 448.308 257.582L414.458 130.249C404.019 138.839 391.433 144.356 378.085 146.192Z" fill="#23AE4A"/>
<path d="M38.238 329.399C29.9932 337.711 24.3785 348.303 22.1037 359.831C19.829 371.361 20.9964 383.312 25.4584 394.173C29.9203 405.031 37.4764 414.315 47.171 420.846C56.8658 427.376 68.2635 430.863 79.9234 430.863C91.583 430.863 102.981 427.376 112.675 420.846C122.37 414.315 129.926 405.031 134.388 394.173C138.85 383.312 140.018 371.361 137.743 359.831C135.468 348.303 129.853 337.711 121.609 329.399C110.544 318.27 95.5529 312.019 79.9234 312.019C64.2938 312.019 49.3023 318.27 38.238 329.399Z" fill="#23AE4A"/>
<path d="M325.461 31.3105C317.217 39.6216 311.602 50.2142 309.327 61.742C307.052 73.2722 308.22 85.2233 312.682 96.0842C317.144 106.943 324.7 116.226 334.394 122.758C344.089 129.287 355.487 132.774 367.147 132.774C378.806 132.774 390.204 129.287 399.899 122.758C409.594 116.226 417.15 106.943 421.612 96.0842C426.074 85.2233 427.241 73.2722 424.966 61.742C422.692 50.2142 417.077 39.6216 408.832 31.3105C397.768 20.1814 382.776 13.9302 367.147 13.9302C351.517 13.9302 336.526 20.1814 325.461 31.3105Z" fill="#23AE4A"/>
<path d="M259.602 383.708C257.234 383.708 254.879 383.395 252.591 382.777L160.464 357.888C157.393 341.35 149.434 326.133 137.633 314.236C125.832 302.339 110.739 294.313 94.3352 291.217L69.6509 198.343C68.4272 193.71 68.4306 188.835 69.6614 184.204C70.8922 179.574 73.3069 175.35 76.6642 171.955L171.222 76.6192C174.586 73.2278 178.776 70.7891 183.37 69.5477C187.966 68.3066 192.804 68.3069 197.398 69.5485L286.942 93.7386C290.494 110.175 298.887 125.146 311.021 136.692C323.156 148.237 338.466 155.819 354.946 158.443L380.334 253.988C381.557 258.622 381.554 263.498 380.321 268.127C379.091 272.759 376.677 276.982 373.318 280.379L278.76 375.712C276.25 378.254 273.262 380.272 269.974 381.643C266.686 383.016 263.161 383.718 259.602 383.708Z" fill="#0D5801"/>
</svg>
